#!OML:ASF H:\ManfredETheater\Project 1\Capture day 1\Session 1\subject.ASF
:FULLY-SPECIFIED
:DEGREES
277
root 1.63079 17.3721 23.8345 -165.137 -3.40296 181.208
lowerback 8.92816 -0.525981 2.98254
upperback -0.820217 -0.346074 3.70275
thorax -5.87088 -0.281668 2.25449
lowerneck -17.886 -1.48906 -2.07917
upperneck 12.7904 -1.50369 -0.0175545
head 6.85051 -0.835212 0.165432
rclavicle 1.98785e-015 -7.95139e-016
rhumerus -39.7682 -8.31712 -77.3332
rradius 33.4482
rwrist 0.557199
rhand -19.2788 -11.7229
rfingers 7.12502
rthumb 7.03602 -41.5859
lclavicle 1.98785e-015 -7.95139e-016
lhumerus -37.3746 -4.07561 91.7919
lradius 49.9976
lwrist -5.5876
lhand -12.769 9.25929
lfingers 7.12502
lthumb 13.3159 38.8139
rfemur -27.1215 1.48848 23.7133
rtibia 34.9961
rfoot -20.5242 -5.17436
rtoes 12.9045
lfemur -33.6897 -2.64829 -15.5409
ltibia 73.7996
lfoot 0.687965 -4.44974
ltoes 2.80195
278
root 1.6445 17.3594 23.6797 -165.093 -3.50822 181.275
lowerback 8.97955 -0.481432 3.07338
upperback -0.813948 -0.27558 3.68266
thorax -5.89511 -0.250465 2.17331
lowerneck -17.7799 -1.56028 -2.14459
upperneck 12.6883 -1.59699 0.0485816
head 6.80165 -0.876575 0.188382
rclavicle 2.78299e-015 2.62396e-014
rhumerus -39.4549 -7.97892 -77.6608
rradius 33.6183
rwrist 0.519753
rhand -19.2948 -11.7795
rfingers 7.12502
rthumb 7.02054 -41.643
lclavicle 2.78299e-015 2.62396e-014
lhumerus -37.4986 -4.06981 91.8195
lradius 50.3741
lwrist -5.40552
lhand -12.8912 9.18083
lfingers 7.12502
lthumb 13.1981 38.7431
rfemur -26.5161 1.60441 23.9033
rtibia 34.9177
rfoot -21.0538 -5.51071
rtoes 12.8257
lfemur -35.1509 -2.44521 -15.5106
ltibia 74.2013
lfoot -0.800152 -4.23231
ltoes 1.58057
279
root 1.65782 17.344 23.5241 -165.039 -3.62837 181.344
lowerback 9.03254 -0.44064 3.17292
upperback -0.810781 -0.208824 3.66097
thorax -5.92325 -0.221431 2.08607
lowerneck -17.6802 -1.63574 -2.21504
upperneck 12.5834 -1.69496 0.117062
head 6.75321 -0.920249 0.212437
rclavicle -3.97569e-016 3.18055e-015
rhumerus -39.1468 -7.61752 -78.0046
rradius 33.8325
rwrist 0.422783
rhand -19.307 -11.8236
rfingers 7.12502
rthumb 7.00876 -41.6876
lclavicle -3.97569e-016 3.18055e-015
lhumerus -37.6145 -4.06693 91.8391
lradius 50.711
lwrist -5.23695
lhand -13.0153 9.038
lfingers 7.12502
lthumb 13.0785 38.6079
rfemur -25.9296 1.72155 24.0994
rtibia 34.8576
rfoot -21.5957 -5.88049
rtoes 12.7217
lfemur -36.6016 -2.28258 -15.485
ltibia 74.4385
lfoot -2.32444 -4.01639
ltoes 0.211656
280
root 1.67077 17.3265 23.3675 -164.971 -3.76046 181.416
lowerback 9.08379 -0.402721 3.28126
upperback -0.810251 -0.144845 3.63898
thorax -5.95292 -0.194125 1.9939
lowerneck -17.5868 -1.71572 -2.28924
upperneck 12.4725 -1.79814 0.187203
head 6.7042 -0.966463 0.237119
rclavicle -1.66979e-014 -3.18055e-015
rhumerus -38.8485 -7.22681 -78.3648
rradius 34.0968
rwrist 0.269056
rhand -19.3233 -11.857
rfingers 7.12502
rthumb 6.99304 -41.7214
lclavicle -1.66979e-014 -3.18055e-015
lhumerus -37.724 -4.06706 91.8515
lradius 51.013
lwrist -5.08049
lhand -13.1387 8.83243
lfingers 7.12502
lthumb 12.9595 38.41
rfemur -25.3614 1.84371 24.3046
rtibia 34.8083
rfoot -22.1445 -6.28577
rtoes 12.5797
lfemur -38.0426 -2.15387 -15.4605
ltibia 74.5138
lfoot -3.81774 -3.78812
ltoes -1.13023
281
root 1.68329 17.3069 23.2099 -164.887 -3.90398 181.488
lowerback 9.13554 -0.367425 3.39494
upperback -0.815333 -0.0832999 3.61748
thorax -5.98851 -0.168277 1.89963
lowerneck -17.4956 -1.79923 -2.36815
upperneck 12.3554 -1.90491 0.257806
head 6.65389 -1.01463 0.262406
rclavicle 3.97569e-016 4.69132e-014
rhumerus -38.5659 -6.79739 -78.7438
rradius 34.4341
rwrist 0.0460293
rhand -19.3244 -11.9437
rfingers 7.12502
rthumb 6.99197 -41.8082
lclavicle 3.97569e-016 4.69132e-014
lhumerus -37.8317 -4.0715 91.8605
lradius 51.2822
lwrist -4.93702
lhand -13.2651 8.58216
lfingers 7.12502
lthumb 12.8376 38.1674
rfemur -24.8081 1.96953 24.5158
rtibia 34.7618
rfoot -22.6968 -6.71732
rtoes 12.4243
lfemur -39.4732 -2.05638 -15.4396
ltibia 74.4297
lfoot -5.26385 -3.57041
ltoes -2.42585
282
root 1.69535 17.2858 23.0512 -164.788 -4.04937 181.565
lowerback 9.18199 -0.33197 3.51288
upperback -0.82393 -0.0211165 3.59849
thorax -6.02455 -0.142369 1.80545
lowerneck -17.4017 -1.8843 -2.45264
upperneck 12.2273 -2.01245 0.328259
head 6.59982 -1.06345 0.288609
rclavicle 8.34896e-015 -4.92986e-014
rhumerus -38.2995 -6.32069 -79.1412
rradius 34.8485
rwrist -0.239748
rhand -19.3192 -12.0852
rfingers 7.12502
rthumb 6.997 -41.9496
lclavicle 8.34896e-015 -4.92986e-014
lhumerus -37.9405 -4.07659 91.8675
lradius 51.5253
lwrist -4.80899
lhand -13.3959 8.3011
lfingers 7.12502
lthumb 12.7116 37.8942
rfemur -24.2656 2.10636 24.7349
rtibia 34.7061
rfoot -23.2503 -7.16696
rtoes 12.2862
lfemur -40.8892 -1.97639 -15.4194
ltibia 74.188
lfoot -6.63606 -3.36061
ltoes -3.58833
283
root 1.70676 17.2638 22.891 -164.673 -4.19893 181.636
lowerback 9.22306 -0.297602 3.62789
upperback -0.833748 0.0392562 3.57911
thorax -6.05855 -0.117258 1.71262
lowerneck -17.3099 -1.97045 -2.54288
upperneck 12.0871 -2.1202 0.400445
head 6.54256 -1.11249 0.316391
rclavicle 3.97569e-015 3.57812e-014
rhumerus -38.045 -5.8131 -79.5475
rradius 35.3325
rwrist -0.56048
rhand -19.3074 -12.2638
rfingers 7.12502
rthumb 7.00846 -42.1278
lclavicle 3.97569e-015 3.57812e-014
lhumerus -38.0444 -4.08 91.8734
lradius 51.7412
lwrist -4.69533
lhand -13.5231 8.00924
lfingers 7.12502
lthumb 12.5889 37.6099
rfemur -23.7261 2.23744 24.9513
rtibia 34.6318
rfoot -23.7997 -7.62043
rtoes 12.139
lfemur -42.2812 -1.91828 -15.4112
ltibia 73.7895
lfoot -7.90291 -3.16361
ltoes -4.59033
